#!OML:ASF I:\Actors\actors\Patient Classification 2\Patient 1\Session 1\actor1.ASF
:FULLY-SPECIFIED
:DEGREES
767
root -1.02539 18.1097 6.17695 0.0264122 -2.89939 -4.69004
lowerback 6.08592 0.989041 3.10363
upperback -1.13584 1.62587 1.48254
thorax -4.5505 0.743342 -0.36676
lowerneck -13.6971 -1.85975 -1.04189
upperneck 15.3264 -3.14496 4.61277
head 7.04047 -1.15988 1.3502
rclavicle 4.60718e-015 -1.47101e-014
rhumerus -58.0249 -20.2383 -66.0077
rradius 92.7435
rwrist -39.7211
rhand -19.2542 -50.7359
rfingers 7.12502
rthumb 7.05973 279.402
lclavicle 4.60718e-015 -1.47101e-014
lhumerus -48.6866 11.3113 79.1001
lradius 92.8851
lwrist 50.1096
lhand -24.4702 -11.0824
lfingers 7.12502
lthumb 2.02328 18.8877
rfemur 0 0 0
rtibia 0
rfoot 0 0
rtoes 0
lfemur 19.7607 -8.33824 -12.8287
ltibia -18.6645
lfoot -5.2867 22.2008
ltoes -9.72501
768
root -1.02434 18.1093 6.17963 0.0534258 -2.85993 -4.67837
lowerback 5.99988 1.00645 3.16214
upperback -1.10888 1.64889 1.48495
thorax -4.4716 0.754589 -0.397192
lowerneck -14.0813 -1.9006 -0.980257
upperneck 15.1699 -3.17752 4.44584
head 7.05371 -1.18388 1.27979
rclavicle 1.10461e-014 -6.5102e-015
rhumerus -57.8928 -18.5955 -66.9805
rradius 90.9978
rwrist -38.4172
rhand -17.1011 -51.3299
rfingers 7.12502
rthumb 9.13781 278.888
lclavicle 1.10461e-014 -6.5102e-015
lhumerus -48.0747 9.5918 80.084
lradius 89.9423
lwrist 48.3852
lhand -22.6181 -9.91199
lfingers 7.12502
lthumb 3.8119 20.0337
rfemur 0 0 0
rtibia 0
rfoot 0 0
rtoes 0
lfemur 19.7248 -8.21492 -12.8145
ltibia -18.669
lfoot -5.18325 22.0413
ltoes -9.98474
769
root -1.0229 18.1079 6.18233 0.0541289 -2.83159 -4.65739
lowerback 5.93626 1.0378 3.24406
upperback -1.06029 1.6923 1.48483
thorax -4.38154 0.775693 -0.445414
lowerneck -14.4822 -1.93456 -0.94544
upperneck 15.0377 -3.2036 4.31939
head 7.07841 -1.20224 1.22747
rclavicle 3.27102e-015 9.93923e-017
rhumerus -57.8195 -16.9729 -67.9422
rradius 89.6207
rwrist -37.609
rhand -15.7037 -52.2435
rfingers 7.12502
rthumb 10.486 278.038
lclavicle 3.27102e-015 9.93923e-017
lhumerus -47.5031 7.6169 81.1375
lradius 87.3451
lwrist 47.5584
lhand -21.3735 -9.1581
lfingers 7.12502
lthumb 5.01373 20.7626
rfemur 0 0 0
rtibia 0
rfoot 0 0
rtoes 0
lfemur 19.7296 -8.1669 -12.8328
ltibia -18.67
lfoot -5.14557 21.9724
ltoes -10.1429
770
root -1.02082 18.1067 6.18656 0.0238993 -2.84189 -4.6067
lowerback 5.89576 1.06291 3.30049
upperback -0.990018 1.72621 1.49724
thorax -4.28329 0.793278 -0.465686
lowerneck -14.8449 -1.93196 -1.01617
upperneck 14.8371 -3.17318 4.30421
head 7.07607 -1.19117 1.23468
rclavicle 1.66388e-014 1.71079e-014
rhumerus -57.7488 -15.2048 -68.9627
rradius 88.5039
rwrist -37.3158
rhand -14.5048 -52.8071
rfingers 7.12502
rthumb 11.6424 277.536
lclavicle 1.66388e-014 1.71079e-014
lhumerus -46.9754 5.6142 82.1969
lradius 84.9373
lwrist 46.7441
lhand -20.1266 -8.42852
lfingers 7.12502
lthumb 6.21756 21.4602
rfemur 0 0 0
rtibia 0
rfoot 0 0
rtoes 0
lfemur 19.7907 -8.18506 -12.9084
ltibia -18.6739
lfoot -5.22615 21.9937
ltoes -10.0264
771
root -1.01965 18.1055 6.19089 0.00637718 -2.82879 -4.5859
lowerback 5.84722 1.06485 3.35291
upperback -0.932 1.73027 1.5434
thorax -4.19539 0.796392 -0.445962
lowerneck -15.0366 -1.8628 -1.18695
upperneck 14.4852 -3.04407 4.41208
head 6.99558 -1.13171 1.30959
rclavicle -1.46198e-014 1.00635e-015
rhumerus -57.73 -13.1191 -70.0666
rradius 87.586
rwrist -37.1293
rhand -13.4714 -52.6359
rfingers 7.12502
rthumb 12.6388 277.767
lclavicle -1.46198e-014 1.00635e-015
lhumerus -46.5592 3.59759 83.2416
lradius 82.5066
lwrist 45.2128
lhand -18.0613 -8.37405
lfingers 7.12502
lthumb 8.21115 21.4464
rfemur 0 0 0
rtibia 0
rfoot 0 0
rtoes 0
lfemur 19.8355 -8.2133 -12.9438
ltibia -18.6863
lfoot -5.31164 22.0057
ltoes -9.8901
